<svg width="112" height="96" viewBox="0 0 112 96" fill="none" xmlns="http://www.w3.org/2000/svg">
<rect width="10.9996" height="26" transform="matrix(-0.976406 -0.215942 -0.215954 0.976404 105.634 45.1885)" fill="white"/>
<path fill-rule="evenodd" clip-rule="evenodd" d="M6.85281 75.8126C6.84734 75.8114 6.84188 75.8103 6.83642 75.809C3.06294 74.969 3.7056 57.6598 8.27183 37.1478C12.8378 16.6369 19.598 0.690194 23.3716 1.52844L6.83586 75.8088L6.85281 75.8126ZM7.96166 75.3821C7.95958 75.3816 7.9575 75.3812 7.95542 75.3807C7.95334 75.3802 7.95126 75.3797 7.94918 75.3793L7.96166 75.3821ZM7.06157 74.7935C4.31407 71.5248 5.15676 55.7393 9.25197 37.3432C13.3472 18.9471 19.2803 4.2948 23.155 2.50032L7.06157 74.7935Z" fill="white"/>
<path fill-rule="evenodd" clip-rule="evenodd" d="M93.0761 42.5884L23.4061 1.53818L23.3824 1.64476C27.1541 2.49373 26.5205 19.7608 21.9661 40.2196C17.4117 60.6781 10.6609 76.5833 6.8852 75.7526L6.86774 75.831L17.9864 74.7522C22.0584 66.9768 25.8195 56.5413 28.4841 44.8024C31.9162 29.6821 32.7794 15.7013 31.3344 6.21097L32.7326 7.03454C33.9839 16.4395 32.9887 30.4161 29.5475 45.5766C26.9927 56.8321 23.5065 66.9035 19.7602 74.5801L87.4532 68.0121L93.0761 42.5884ZM19.7602 74.5801L19.7559 74.589L17.9842 74.7566L17.9864 74.7522L19.7602 74.5801ZM7.59807 72.5502L6.8852 75.7526L6.88199 75.7519C6.78339 75.7299 6.68781 75.6968 6.59521 75.6526L6.88993 75.7182L7.59601 72.5465C5.94466 69.5499 7.40965 54.9903 11.2211 37.869C15.0325 20.7478 19.8821 6.94157 22.6486 4.92852L23.3798 1.64426L23.3642 1.64079L23.3793 1.64408L23.3824 1.64476L22.6519 4.92614C22.9363 4.72004 23.1986 4.63874 23.4355 4.69147C25.5696 5.16655 24.9598 16.3676 22.2185 31.1333C22.2719 31.1324 22.3253 31.1321 22.3788 31.1323L18.5612 48.2813C18.5371 48.2701 18.513 48.2588 18.4891 48.2474L18.4302 48.219C14.6212 62.9697 10.3624 73.5745 8.20805 73.095C7.97121 73.0422 7.76815 72.8574 7.59807 72.5502ZM14.1521 43.1087L7.59807 72.5502L7.59601 72.5465L14.1504 43.1034C13.6866 41.6027 13.597 39.9376 13.9705 38.2599C14.344 36.5822 15.1314 35.1124 16.188 33.9501L22.6486 4.92852L22.6519 4.92614L16.1918 33.9461C17.7641 32.2187 19.9316 31.1718 22.2185 31.1333C22.1527 31.4876 22.0857 31.8439 22.0175 32.2022C22.0593 32.1981 22.101 32.1943 22.1429 32.1908L18.7974 47.219C18.7649 47.2004 18.7326 47.1816 18.7004 47.1626C18.6106 47.517 18.5205 47.8692 18.4302 48.219C16.3687 47.2157 14.8447 45.3449 14.1521 43.1087ZM14.7153 40.5785L14.1521 43.1087L14.1504 43.1034L14.7148 40.568C14.6834 39.8772 14.7419 39.1714 14.8992 38.4648C15.0565 37.7581 15.303 37.0942 15.6244 36.4819L16.188 33.9501L16.1918 33.9461L15.6293 36.4726C16.8938 34.0719 19.3112 32.4674 22.0175 32.2022C21.5437 34.6907 21.0111 37.2735 20.4225 39.9174C19.8673 42.4115 19.2901 44.8353 18.7004 47.1626C16.3555 45.7756 14.8422 43.2935 14.7153 40.5785ZM14.7153 40.5785L15.6293 36.4726L15.6244 36.4819L14.7148 40.568L14.7153 40.5785ZM47.7638 35.5361L51.8663 36.4516L48.5659 51.2422L52.4525 52.1094L55.7528 37.3188L59.8554 38.2342L57.7595 47.6268L59.8554 38.2343L59.8554 38.2343L65.4693 39.487L63.3735 48.8795L65.4693 39.487L69.0637 45.2191L63.3735 48.8795L66.9558 54.6657L61.2535 58.3801L55.6395 57.1274L61.1699 53.3746L57.7596 47.6269L57.7595 47.6268L55.6636 57.0194L43.572 54.3213L47.7638 35.5361ZM57.7596 47.6269L63.2899 43.8741L59.8554 38.2343L57.7596 47.6269Z" fill="white"/>
</svg>
