<svg width="134" height="134" viewBox="0 0 134 134" fill="none" xmlns="http://www.w3.org/2000/svg">
<g clip-path="url(#clip0_1549_2430)">
<path d="M31.1903 45.5471L11.6013 34.3624C10.7696 33.8875 9.7111 34.2858 9.39872 35.1911L7.24421 41.435C6.94752 42.295 7.46306 43.2222 8.35022 43.4239L30.0937 48.3648C30.4609 48.4482 30.846 48.3932 31.1751 48.2101C31.5042 48.0271 31.7542 47.729 31.877 47.3731C31.9934 47.0364 31.9884 46.6696 31.863 46.3362C31.7376 46.0028 31.4996 45.7237 31.1903 45.5471ZM32.1583 59.4003C32.1763 59.6994 32.0832 59.9947 31.8968 60.2294C31.7104 60.464 31.4439 60.6216 31.1485 60.6719L13.6581 63.6511C13.4897 63.6798 13.3171 63.6727 13.1516 63.6302C12.9861 63.5878 12.8314 63.5109 12.6976 63.4047C12.5638 63.2984 12.4539 63.1652 12.3751 63.0136C12.2962 62.862 12.2502 62.6955 12.24 62.525L11.9254 57.2786C11.8798 56.518 12.5369 55.9032 13.2928 55.9995L31.0978 58.2665C31.379 58.3023 31.6388 58.4352 31.8325 58.6422C32.0261 58.8492 32.1413 59.1173 32.1583 59.4003ZM40.047 37.8794C39.8482 38.1036 39.5736 38.2465 39.2759 38.2807C38.9783 38.3149 38.6784 38.238 38.434 38.0647L23.9598 27.8037C23.8204 27.7049 23.7035 27.5778 23.6165 27.4308C23.5295 27.2837 23.4745 27.12 23.455 26.9503C23.4355 26.7806 23.452 26.6086 23.5034 26.4457C23.5548 26.2828 23.6399 26.1325 23.7532 26.0046L27.2403 22.0725C27.7459 21.5025 28.6454 21.5323 29.1117 22.1351L40.0988 36.3281C40.2723 36.5522 40.3621 36.8299 40.3527 37.1131C40.3432 37.3964 40.2351 37.6674 40.047 37.8794Z" fill="#FFD469"/>
<path d="M90.5924 113.902L94.4044 114.946C97.503 115.795 100.703 113.971 101.552 110.873L106.286 93.5898C107.135 90.4912 105.311 87.2913 102.212 86.4425L98.4003 85.3983C95.3017 84.5495 92.1018 86.3732 91.253 89.4718L86.5188 106.755C85.6699 109.853 87.4938 113.053 90.5924 113.902Z" fill="#00B1FF"/>
<path d="M103.292 90.8943L66.7026 82.0655L79.3732 42.0391L113.983 55.749C114.201 55.8181 123.915 60.8658 118.942 76.5765C113.969 92.2871 103.292 90.8943 103.292 90.8943Z" fill="#0096D1"/>
<path d="M39.2174 51.4018C33.6735 68.9151 32.228 86.6659 36.9075 88.1471C41.587 89.6283 50.6194 74.2794 56.1633 56.766C61.7072 39.2525 63.1526 21.5022 58.4733 20.0208C53.7939 18.5393 44.7613 33.8884 39.2174 51.4018Z" fill="#727272"/>
<path d="M49.2745 70.9474C45.3979 69.7201 44.3634 62.066 46.964 53.8515C49.5646 45.6369 54.8155 39.9726 58.6921 41.1999C62.5688 42.4272 63.6032 50.0813 61.0026 58.2959C58.402 66.5104 53.1512 72.1747 49.2745 70.9474Z" fill="#B2B2B2"/>
<path d="M37.1118 88.2119C41.1992 89.5058 49.7517 74.005 55.2956 56.4915C60.8394 38.9781 62.7649 21.3794 58.6775 20.0856C58.4422 20.011 58.1939 19.9867 57.9351 20.0059C59.5715 19.527 61.4148 19.9535 62.8585 21.5232C69.2207 28.4407 84.7389 43.4126 84.7389 43.4126C84.7389 43.4126 91.9883 49.1584 86.5522 66.3306C81.1162 83.5027 71.5832 84.0904 71.5832 84.0904C71.5832 84.0904 50.4819 87.4957 41.3419 89.4828C39.1781 89.9532 37.3722 89.1657 36.3252 87.7309C36.5616 87.957 36.823 88.1205 37.1118 88.2119Z" fill="#D1D1D1"/>
<path d="M111.656 66.4442C112.144 66.3141 112.591 66.0628 112.957 65.7137C113.322 65.3646 113.593 64.9289 113.746 64.4471C114.247 62.8644 113.37 61.1755 111.787 60.6746L97.8075 56.2493C96.2251 55.7485 94.5359 56.6251 94.035 58.2077C93.534 59.7903 94.4108 61.4792 95.9934 61.9802L109.973 66.4055C110.519 66.5791 111.103 66.5926 111.656 66.4442Z" fill="#00B1FF"/>
</g>
<defs>
<clipPath id="clip0_1549_2430">
<rect width="109.26" height="109.26" fill="white" transform="matrix(-0.965926 0.258819 0.258819 0.965926 105.537 0)"/>
</clipPath>
</defs>
</svg>
