<svg width="178" height="225" viewBox="0 0 178 225" fill="none" xmlns="http://www.w3.org/2000/svg">
<g clip-path="url(#clip0_1253_6271)">
<path d="M72.1101 19.1C82.3301 29.48 84.6101 42.68 79.2901 50.21C78.3101 51.6 75.5401 54.97 69.1501 56.59C68.6301 58.09 68.3201 59.78 69.1501 60.72C70.5201 62.25 74.0201 60.67 74.4101 61.47C74.8301 62.33 71.4801 65.53 67.6501 67.1C60.2501 70.14 52.1501 66.63 48.1301 64.47C48.6001 63.36 49.1701 61.64 49.2601 59.5C49.4001 56.24 48.3701 53.73 47.7501 52.49C48.5501 52.69 49.3501 52.85 49.4301 52.67C49.5401 52.4 47.7901 51.85 46.6301 50.35C45.4101 48.78 44.8301 46.16 45.8801 44.95C47.0001 43.67 49.0901 44.97 50.0101 43.82C51.1201 42.43 50.0301 39.31 48.5101 35.19C47.5201 32.51 46.9701 31.71 47.3401 30.5C47.7701 29.06 49.1601 28.15 51.5601 27.12C53.2201 26.41 54.5101 26.01 55.6001 25.75C59.2201 24.91 61.7601 24.33 62.5401 24.16C64.9401 23.64 68.2601 22.38 72.1101 19.09V19.1Z" fill="#FFD6BB"/>
<path d="M69.8601 21.92C74.8101 17.89 76.6501 12.74 77.3201 10.8C77.8901 9.13002 80.2101 2.42001 77.8801 0.520015C74.5201 -2.20999 63.4101 6.68002 61.9701 7.84001C60.4501 7.59001 58.1901 7.35001 55.4801 7.50001C52.1901 7.68001 42.8201 8.21001 36.6301 15.44C32.2101 20.6 28.8801 29.81 32.9701 37.4C34.9301 41.03 38.2801 40.03 41.2801 44.86C43.1601 47.89 43.4401 50.51 46.2501 52.09C46.2701 52.09 46.2901 52.11 46.3201 52.13C48.1101 53.12 50.3901 53.27 50.6101 52.76C50.9101 52.07 47.1001 50.97 46.3501 47.82C46.2801 47.54 45.8601 45.78 46.7701 44.86C47.8501 43.77 49.8201 44.86 50.7101 43.87C51.4501 43.05 50.6901 41.47 50.6101 40.61C50.0301 34.34 46.6901 32.65 47.4701 30.49C49.2701 25.52 60.4601 29.55 69.8501 21.9L69.8601 21.92Z" fill="#5A4540"/>
<path d="M82.3902 29.38C80.1002 26.22 75.1002 25.77 72.8202 27.97C70.0902 30.6 71.4202 36.84 75.2102 38.67C77.1802 39.62 80.0102 39.47 81.8802 37.74C84.2102 35.57 84.1102 31.76 82.3902 29.38V29.38Z" stroke="#5A4540" stroke-miterlimit="10"/>
<path d="M66.3401 33.18C64.5001 32 61.9701 31.81 59.8601 32.9C56.3001 34.75 56.3401 39.04 56.3401 39.24C56.4001 41.74 57.8401 44.77 60.8401 45.72C63.8701 46.67 67.0001 45.02 68.4401 42.62C70.3401 39.47 69.3101 35.09 66.3301 33.19L66.3401 33.18Z" stroke="#5A4540" stroke-miterlimit="10"/>
<path d="M71.8002 34.4601L68.5902 35.7101" stroke="#5A4540" stroke-miterlimit="10"/>
<path d="M56.5102 40.96C54.1302 41.86 51.7402 42.76 49.3602 43.66L48.3402 44.04C47.5902 44.32 47.2602 43.12 48.0102 42.83C50.3902 41.93 52.7802 41.03 55.1602 40.13L56.1802 39.75C56.9302 39.47 57.2602 40.67 56.5102 40.96Z" fill="#5A4540"/>
<path d="M74.5402 35.9L74.0102 34.32C73.9602 34.15 73.9502 33.99 73.9902 33.82C73.9902 33.65 74.0502 33.5 74.1402 33.36C74.2202 33.21 74.3302 33.1 74.4602 33.01C74.5802 32.9 74.7202 32.82 74.8902 32.79C75.2102 32.72 75.5702 32.73 75.8502 32.92L76.1002 33.12C76.2502 33.28 76.3602 33.46 76.4202 33.67L76.9502 35.25C77.0002 35.42 77.0102 35.58 76.9702 35.75C76.9702 35.92 76.9102 36.07 76.8202 36.21C76.7402 36.36 76.6302 36.47 76.5002 36.56C76.3802 36.67 76.2402 36.75 76.0702 36.78C75.7502 36.85 75.3902 36.84 75.1102 36.65L74.8602 36.45C74.7102 36.29 74.6002 36.11 74.5402 35.9Z" fill="#5A4540"/>
<path d="M61.9402 40.9899L61.4102 39.4099C61.3602 39.2399 61.3502 39.0799 61.3902 38.9099C61.3902 38.7399 61.4502 38.5899 61.5402 38.4499C61.6202 38.2999 61.7302 38.1899 61.8602 38.0999C61.9802 37.9899 62.1202 37.9099 62.2902 37.8799C62.6102 37.8099 62.9702 37.8199 63.2502 38.0099L63.5002 38.2099C63.6502 38.3699 63.7602 38.5499 63.8202 38.7599L64.3502 40.3399C64.4002 40.5099 64.4102 40.6699 64.3702 40.8399C64.3702 41.0099 64.3102 41.1599 64.2202 41.2999C64.1402 41.4499 64.0302 41.5599 63.9002 41.6499C63.7802 41.7599 63.6402 41.8399 63.4702 41.8699C63.1502 41.9399 62.7902 41.9299 62.5102 41.7399L62.2602 41.5399C62.1102 41.3799 62.0002 41.1999 61.9402 40.9899Z" fill="#5A4540"/>
<path d="M71.9002 44.42C71.6702 44.7 71.4502 44.98 71.2202 45.26C71.1602 45.32 71.1002 45.36 71.0202 45.39C70.9502 45.43 70.8702 45.45 70.7802 45.44C70.6902 45.44 70.6102 45.43 70.5402 45.39C70.4602 45.36 70.4002 45.32 70.3402 45.26C70.2302 45.14 70.1502 44.98 70.1602 44.82L70.1802 44.65C70.2102 44.54 70.2602 44.45 70.3402 44.37C70.5702 44.09 70.7902 43.81 71.0202 43.53C71.0802 43.47 71.1402 43.43 71.2202 43.4C71.2902 43.36 71.3702 43.34 71.4602 43.35C71.5502 43.35 71.6302 43.36 71.7002 43.4C71.7802 43.43 71.8402 43.47 71.9002 43.53C72.0102 43.65 72.0902 43.81 72.0802 43.97L72.0602 44.14C72.0302 44.25 71.9802 44.34 71.9002 44.42Z" fill="#5A4540"/>
<path d="M70.3602 50.25C69.1202 50.67 67.8002 50.79 66.5102 50.6C64.9002 50.36 63.4402 49.58 62.2102 48.54C61.6002 48.02 62.4802 47.14 63.0902 47.66C64.1502 48.56 65.4502 49.22 66.8402 49.4C67.9202 49.54 69.0002 49.4 70.0302 49.05C70.7902 48.79 71.1202 50 70.3602 50.26V50.25Z" fill="#5A4540"/>
<path d="M128.59 157.07C128.21 156.94 128.04 156.51 127.99 156.4C126.59 153.14 105.94 139.28 102.3 137.79C102.04 137.68 100.92 137.23 99.5901 136.32C99.3901 136.19 99.2301 136.06 98.9601 135.84C97.3701 134.63 88.1001 117.41 92.4301 113.94C99.6701 108.15 137.45 146.47 134.51 151.5C134.27 151.91 133.16 153.12 131.14 155.31C130.18 156.35 129.28 157.3 128.58 157.06L128.59 157.07Z" fill="#FFE279"/>
<path d="M46.4002 66.35C45.6402 65.28 42.8802 66.48 38.4602 67.57C28.1402 70.12 25.9502 67.84 20.4402 71.04C17.8002 72.58 15.6802 74.63 14.1502 76.11C11.1602 79 9.66018 80.45 10.0202 81.18C10.7702 82.72 18.2402 78.16 31.9802 75.83C36.6002 75.05 41.4402 74.6 44.6502 70.76C45.6902 69.53 47.0802 67.31 46.3902 66.34L46.4002 66.35Z" fill="#FFBD01"/>
<path d="M107.45 150.73C107.09 151.81 105.96 155.2 103.23 156.08C100.38 157 97.3301 154.69 96.1901 153.83C85.3601 145.63 83.8201 96.63 88.8701 96.11C91.1101 95.88 90.2701 105.67 99.8502 125.11C104.54 134.62 110.03 143.01 107.45 150.73Z" fill="#FFBD01"/>
<path d="M96.1301 152.34C100.83 151.8 114.11 152.73 140.67 154.58C145.95 154.95 154.19 155.63 157.19 161.15C159.03 164.54 158.22 168.51 157.38 171.1C155.87 173.09 153.51 175.95 150.25 178.98C132.22 195.76 117.5 198.69 109.71 199.63C101.92 200.57 112.65 201.72 124.73 202.07C121.66 209.02 134.27 224.97 115.53 222.91C96.7901 220.85 17.3701 223.68 10.9801 194.19C9.94014 189.4 10.4201 180.15 25.8101 165.47C55.3001 157.96 79.3301 154.28 96.1401 152.34H96.1301Z" fill="#0956BC"/>
<path d="M74.4101 61.48C75.3701 62.26 76.5901 63.49 77.1801 65.28C78.0301 67.87 76.5401 68.42 77.0401 71.24C77.4601 73.6 78.6301 73.86 82.1101 80.81C82.1101 80.81 84.8001 85.24 88.8701 96.11C94.0601 109.99 88.1201 113.86 91.6901 131.49C94.3301 144.53 98.3701 146.76 96.1401 152.34C92.1701 162.26 75.8001 164.2 71.4201 164.71C65.2501 165.44 54.3401 166.73 46.6401 160.58C37.8401 153.55 38.2801 140.84 39.3201 119.75C40.8001 89.71 48.3301 61.4 55.6501 61.47C57.3301 61.48 58.8601 64.19 63.7201 65.04C66.1701 65.47 67.8201 65.16 68.2901 65.06C71.5001 64.4 73.5501 62.42 74.4101 61.47V61.48Z" fill="#7DD3D3"/>
<path d="M48.8501 62.3499C51.9901 61.1999 56.1901 61.2699 59.1801 63.3599C63.5001 66.3699 63.9301 72.5199 64.0901 75.3699C64.9501 90.8999 65.3901 98.6599 64.9101 120.08C64.9101 120.08 64.3301 146.02 61.2701 175.23C61.1401 176.44 60.7901 179.4 58.6401 180.86C57.1501 181.87 55.4501 181.73 54.6501 181.67C44.5001 180.95 40.8701 184.73 30.7601 181.96C29.6101 181.64 27.7801 181.08 25.6001 180.11C22.9001 180.93 19.3801 181.54 17.3401 179.73C15.0401 177.69 15.9801 173.74 16.2001 167.53C16.4601 160.29 15.4001 159.46 15.0501 151.58C14.1801 131.98 19.1901 101.84 20.1601 98.1199C20.2201 97.8999 20.4201 97.1799 20.1601 96.3799C19.5801 94.6099 17.2601 94.0899 15.9401 93.5199C11.5001 91.5999 8.6501 84.8499 10.0201 81.1799C10.5801 79.6699 11.9201 78.5399 17.1801 76.5599C30.9401 71.3899 35.5501 73.9399 41.3601 69.1599C44.9801 66.1899 44.9501 63.7499 48.8301 62.3299L48.8501 62.3499Z" fill="#FFE279"/>
<path d="M78.3502 59.04C77.1002 58.66 73.9502 62.78 73.8502 67.11C73.7402 71.77 77.1702 75.33 78.1702 76.4C85.5402 84.36 89.7202 97.38 95.0602 114.04C101.92 135.42 98.7402 149.98 106.59 152.84C106.91 152.96 110.5 154.23 111.96 152.7C113.43 151.16 111.7 147.86 110.21 142.06C108.94 137.12 109.14 135.35 108.39 130.92C105.97 116.54 98.1502 100.68 96.9402 98.26C91.6302 87.62 88.9702 82.3 85.3002 77.24C83.3102 74.5 80.5102 71.03 79.4802 65.6C78.7702 61.82 79.3402 59.33 78.3502 59.03V59.04Z" fill="#FFE279"/>
<path d="M25.6101 180.11C23.2401 178.75 20.0301 178.49 17.3501 179.73C16.1501 180.29 15.3101 181.03 14.8101 181.55C1.97011 188.94 -0.499886 192.51 0.0801163 194.38C0.570116 195.94 3.29012 196.6 4.96012 197.01C9.89012 198.21 14.0201 196.1 14.6001 195.79C19.6401 193.12 19.5801 189.01 22.9801 188.38C24.6301 188.07 27.1601 188.57 30.8601 192.51C31.2801 192.38 31.7901 192.14 32.0801 191.67C32.6601 190.71 32.0601 189.28 30.4801 186.7C28.1201 182.83 26.9401 180.9 25.6001 180.13L25.6101 180.11Z" fill="#FFD6BB"/>
<path d="M40.5702 132.5C38.9502 137.88 37.3402 143.25 35.7202 148.63L27.9902 174.35C27.4002 176.32 26.8002 178.3 26.2102 180.27C26.1302 180.53 25.8902 180.73 25.6102 180.73H16.1502C15.8202 180.73 15.5102 180.44 15.5302 180.11C16.0202 170.61 16.6902 161.11 17.4702 151.63C18.1302 143.59 18.8802 135.55 19.8302 127.54C20.6702 120.47 21.5902 113.37 23.1102 106.41C23.6802 103.8 24.3102 101.15 25.3502 98.68C25.8902 97.41 26.6502 95.65 28.1102 95.23C28.8802 95.01 29.2102 96.21 28.4402 96.44C28.1602 96.52 27.8302 96.82 27.5502 97.18C27.1102 97.76 26.7902 98.45 26.5102 99.12C25.6202 101.23 25.0602 103.49 24.5402 105.71C23.0002 112.41 22.0802 119.26 21.2502 126.07C19.4702 140.69 18.3102 155.4 17.3602 170.09C17.1502 173.43 16.9402 176.76 16.7702 180.1L16.1502 179.48H25.6102L25.0102 179.94C26.6302 174.56 28.2402 169.19 29.8602 163.81L37.5902 138.09C38.1802 136.12 38.7802 134.14 39.3702 132.17C39.6002 131.4 40.8102 131.73 40.5802 132.5H40.5702Z" fill="#5A4540"/>
<path d="M124.83 202.6C123.88 203.33 122.36 203.29 121.24 203.27C119.07 203.24 116.91 202.91 114.78 202.56C108.45 201.51 102.19 199.95 95.9901 198.33C82.4001 194.79 68.9401 190.72 55.5501 186.5C52.5101 185.54 49.4601 184.57 46.4301 183.58C45.6701 183.33 45.9901 182.12 46.7601 182.37C54.9001 185.04 63.0801 187.57 71.2801 190.03C84.8301 194.1 98.5001 198.21 112.42 200.87C114.98 201.36 117.57 201.81 120.18 201.97C121.4 202.04 123.28 202.23 124.21 201.51C124.85 201.02 125.47 202.1 124.84 202.59L124.83 202.6Z" fill="#5A4540"/>
<path d="M103.46 172.66C103.84 172.72 103.51 172.64 103.48 172.68C103.45 172.72 103.65 172.63 103.45 172.68C103.36 172.71 103.27 172.72 103.18 172.75C102.71 172.91 102.01 173.32 101.45 173.73C98.3002 176.04 95.8602 179.47 93.6402 182.62C91.0202 186.35 88.6602 190.26 86.3902 194.21C85.9902 194.91 84.9102 194.28 85.3102 193.58C88.7902 187.49 92.4802 181.32 97.1702 176.06C98.6702 174.38 100.52 172.31 102.75 171.57C103.09 171.46 103.43 171.38 103.79 171.44C104.58 171.56 104.25 172.76 103.46 172.65V172.66Z" fill="#5A4540"/>
<path d="M129.54 223.02C127.85 224.91 123.54 224.81 121.45 222.77C119.88 221.24 120.47 219.51 119.86 214.59C118.99 207.6 117.34 207.34 117.53 203.3C117.72 199.11 119.79 193.12 123.27 192.54C126.91 191.94 131.75 197.34 132.36 202.55C132.91 207.27 129.61 208.51 129.64 215.35C129.66 219.58 130.93 221.47 129.55 223.01L129.54 223.02Z" fill="#251C0E"/>
<path d="M154.55 148.58C141.88 147.45 129.21 146.33 116.54 145.2C116.02 145.15 115.49 145.23 115 145.42C104.08 149.63 93.1501 153.84 82.2301 158.05C78.9701 159.31 79.4601 164.06 82.9001 164.63C94.6301 166.57 106.36 168.52 118.1 170.46C118.74 170.57 119.4 170.49 120 170.23C131.86 165.2 143.72 160.17 155.58 155.14C158.87 153.75 158.1 148.88 154.54 148.57L154.55 148.58Z" fill="#7E7EBB"/>
<path d="M177.63 94.4L168.39 148.8C168.29 149.42 167.87 149.94 167.3 150.18C152.29 156.55 137.28 162.91 122.26 169.28C120.91 169.85 119.46 168.68 119.74 167.24C123.47 148.01 127.2 128.78 130.93 109.55C131.05 108.92 131.49 108.41 132.08 108.18C146.3 102.8 160.53 97.42 174.75 92.04C176.3 91.45 177.9 92.77 177.62 94.4H177.63Z" fill="#98BFFF"/>
</g>
<defs>
<clipPath id="clip0_1253_6271">
<rect width="177.66" height="224.37" fill="white" transform="matrix(-1 0 0 1 177.66 0)"/>
</clipPath>
</defs>
</svg>
