<svg width="53" height="53" viewBox="0 0 53 53" fill="none" xmlns="http://www.w3.org/2000/svg">
<g clip-path="url(#clip0_1549_2423)">
<path d="M1.14565 49.4637C2.09817 46.3706 3.65578 40.5435 4.56856 38.3249C5.30615 36.5347 5.99514 34.7356 6.84167 33.8876C7.6882 33.0411 9.12804 33.1073 9.99665 33.973C9.99665 33.973 13.6316 36.439 14.9345 38.0702C16.5657 39.3687 19.0346 43.0125 19.0346 43.0125C19.9032 43.8811 19.9695 45.3194 19.123 46.1674C18.275 47.014 16.4759 47.703 14.6842 48.4405C12.467 49.3533 6.63851 50.908 3.54537 51.8635C3.01684 52.0254 0.9837 49.9923 1.14565 49.4637Z" fill="#D99E82"/>
<path d="M32.9142 7.81455C32.5113 8.21731 32.1917 8.6955 31.9737 9.22181C31.7556 9.74812 31.6434 10.3122 31.6434 10.8819C31.6434 11.4516 31.7556 12.0157 31.9737 12.542C32.1917 13.0683 32.5113 13.5465 32.9142 13.9493L39.049 20.0855C39.8628 20.8985 40.966 21.3552 42.1164 21.3552C43.2667 21.3552 44.3699 20.8985 45.1837 20.0855L51.32 13.9493C52.1329 13.1355 52.5896 12.0322 52.5896 10.8819C52.5896 9.73161 52.1329 8.62835 51.32 7.81455L45.1852 1.6798C44.7824 1.27689 44.3043 0.957285 43.7779 0.739228C43.2516 0.52117 42.6875 0.408936 42.1178 0.408936C41.5481 0.408936 40.984 0.52117 40.4577 0.739228C39.9314 0.957285 39.4532 1.27689 39.0505 1.6798L32.9142 7.81455Z" fill="#EA596E"/>
<path d="M6.84127 33.8876L12.9804 40.0268L19.1093 46.1586L42.1172 23.1522L29.8462 10.8827L6.84127 33.8876Z" fill="#F1A1A4"/>
<path d="M5.77393 51.1789C5.77393 51.1789 1.78567 53.371 0.708006 52.2934C-0.36966 51.2157 1.83426 47.2363 1.83426 47.2363C1.83426 47.2363 5.61198 47.3069 5.77393 51.1789Z" fill="#292F33"/>
<path d="M49.7859 15.4834L37.5149 3.2124L29.8476 10.8812L42.1171 23.1522L49.7859 15.4834Z" fill="#CCD6DD"/>
<path d="M48.252 17.016L35.9825 4.74646L34.4484 6.28052L46.7179 18.55L48.252 17.016ZM45.1853 20.087L32.9143 7.81604L31.3803 9.3501L43.6513 21.6196L45.1853 20.087Z" fill="#99AAB5"/>
</g>
<defs>
<clipPath id="clip0_1549_2423">
<rect width="53" height="53" fill="white" transform="matrix(-1 0 0 1 53 0)"/>
</clipPath>
</defs>
</svg>
