<svg width="400" height="80" viewBox="0 0 400 80" fill="none" xmlns="http://www.w3.org/2000/svg">
<g clip-path="url(#clip0_787_129)">
<path d="M140.594 1.22758H122.269V6.45248H124.302V35.6229H122.269V40.6637H133.743V47.9985H138.939V6.49084H140.594V1.22758ZM133.82 35.6536H129.684V29.1167H133.82V35.6536ZM133.82 23.2934H129.684V17.9534H133.82V23.2934ZM133.82 13.0277H129.684V6.49084H133.82V13.0277Z" fill="#231815"/>
<path d="M150.568 19.1886H145.411L154.141 10.5265L150.924 7.33481L147.653 10.5802L145.604 8.54704L152.927 1.28129L146.13 1.22758L141.785 5.53947C140.192 7.11998 140.192 9.67488 141.785 11.2554L144.816 14.263L140.524 18.5211V24.1604H155.579V16.7642H150.576V19.1886H150.568Z" fill="#231815"/>
<path d="M167.633 16.7642V19.1886H162.476L171.205 10.5265L167.989 7.33481L164.718 10.5802L162.669 8.54704L169.991 1.28129L163.195 1.22758L158.849 5.53947C157.257 7.11998 157.257 9.67488 158.849 11.2554L161.88 14.263L157.589 18.5211V24.1604H172.644V16.7642H167.641H167.633Z" fill="#231815"/>
<path d="M150.684 35.6613H145.643V25.7639H140.524V37.0576C140.524 39.0294 142.132 40.6253 144.12 40.6253H148.805L142.071 47.9985H147.568L154.117 40.5716C155.061 39.4975 155.586 38.1164 155.586 36.697V25.7639H150.692V35.6613H150.684Z" fill="#231815"/>
<path d="M167.842 35.6613H163.063V25.7639H157.589V47.9985H163.102V40.587H169.094C171.051 40.587 172.644 39.0141 172.644 37.0653V25.7562H167.842V35.6536V35.6613Z" fill="#231815"/>
<path d="M199.644 4.48068V9.93575H208.977V15.5366H199.644V20.539H208.977V25.7639H199.644V31.3647H208.977V35.8454L199.644 47.9985H205.513L213.33 38.0627C214.119 37.0653 214.544 35.8301 214.544 34.5641V31.2957H223.954V25.7716H214.544V20.6157H223.954V15.5366H214.544V9.85902H223.954V4.48068H214.544V1.22758H208.977V4.48068H199.644Z" fill="#231815"/>
<path d="M226.962 1.22758V47.9985H232.684V6.79007H242.171L235.568 20.493L242.774 26.8917V36.2904H234.122V41.7455H243.64C246.2 41.7455 248.272 39.6893 248.272 37.1497V27.0989C248.272 25.8636 247.777 24.6744 246.896 23.7998L241.978 19.3268L247.584 7.24274C247.8 6.80541 247.908 6.32205 247.908 5.83102V4.42697C247.908 2.66232 246.648 1.23526 244.87 1.23526H226.97L226.962 1.22758Z" fill="#231815"/>
<path d="M283.546 1.22758L277.198 7.52661V15.5136L287.768 5.02541L298.051 15.2297V7.50359L291.703 1.20456L283.546 1.22758Z" fill="#231815"/>
<path d="M280.399 12.3372V17.5314H284.729V22.9634H278.18V28.1193H284.729V42.8503H278.18V48.0061H289.469C291.494 48.0061 293.505 47.7069 295.438 47.1238L298.051 46.3259L296.134 41.6227C296.134 41.6227 293.482 43.1342 290.373 43.1342V28.1193H297.263V22.9634H290.373V17.7539H295.005V12.3372H280.399Z" fill="#231815"/>
<path d="M282.865 30.5822H278.18V40.6253H282.865V30.5822Z" fill="#231815"/>
<path d="M297.209 30.5822H292.523V39.5435H297.209V30.5822Z" fill="#231815"/>
<path d="M316.964 37.8632C316.964 37.8632 321.364 36.1293 325.315 31.756L322.153 28.3418C322.153 28.3418 319.555 31.4261 315.379 33.6664C315.379 33.6664 314.815 31.5412 314.699 25.434H324.635V5.90773C324.635 3.32213 322.524 1.22757 319.918 1.22757H300.866V42.7352H299.057V47.9985H306.054C308.173 47.9985 310.261 47.4998 312.139 46.5407L313.678 45.7581L311.536 41.4999C311.536 41.4999 310.237 42.7889 306.371 42.7889V25.4263H309.897C309.897 25.4263 309.387 35.5462 312.774 41.1854C316.16 46.8246 319.995 47.9985 324.573 47.9985V42.9577C324.573 42.9577 320.111 42.7352 316.949 37.8632H316.964ZM306.58 6.10721H318.944V10.3117H306.58V6.09954V6.10721ZM306.58 19.718V15.5136H318.944V19.718H306.58Z" fill="#231815"/>
<path d="M400 3.65973H372.149V9.26057H400V3.65973Z" fill="#231815"/>
<path d="M372.149 22.4801H389.987V42.7199H380.051V48.0061H390.335C393.257 48.0061 395.631 45.6507 395.631 42.7506V22.4801H400V16.8025H372.149V22.4801Z" fill="#231815"/>
<path d="M352.208 11.4242L354.767 15.5136C354.767 15.5136 362.893 10.304 368.012 3.65973L364.246 0C364.246 0 358.447 7.16601 352.208 11.4242Z" fill="#231815"/>
<path d="M351.156 26.7306L354.767 30.9121C354.767 30.9121 355.602 30.2139 356.878 29.0553V47.9985H362.445V23.6233C364.486 21.4674 366.528 19.0736 368.012 16.8025L363.798 13.1428C363.798 13.1428 359.731 20.0173 351.156 26.7383V26.7306Z" fill="#231815"/>
<path d="M122.269 62.507H124.975V73.7317C124.975 75.972 126.8 77.7827 129.057 77.7827C131.315 77.7827 133.14 75.972 133.14 73.7317V62.507H135.661V73.701C135.661 77.1842 132.815 80 129.313 80H128.617C125.106 80 122.269 77.1766 122.269 73.701V62.507Z" fill="#231815"/>
<path d="M139.094 62.507V79.6087H141.537V66.3508L149.857 79.6087H152.486V62.507H150.081V76.0257L141.761 62.507H139.094Z" fill="#231815"/>
<path d="M180.523 62.507V79.6087H182.974V66.3508L191.286 79.6087H193.922V62.507H191.51V76.0257L183.198 62.507H180.523Z" fill="#231815"/>
<path d="M234.864 62.507V79.6087H237.315V66.3508L245.627 79.6087H248.264V62.507H245.859V76.0257L237.54 62.507H234.864Z" fill="#231815"/>
<path d="M386.6 62.507V79.6087H389.051V66.3508L397.363 79.6087H400V62.507H397.595V76.0257L389.275 62.507H386.6Z" fill="#231815"/>
<path d="M158.849 62.507H156.213V79.6087H158.849V62.507Z" fill="#231815"/>
<path d="M345.535 62.507H342.898V79.6087H345.535V62.507Z" fill="#231815"/>
<path d="M169.744 62.2614C165.306 62.2614 161.71 65.8291 161.71 70.2331V72.0284C161.71 76.4323 165.306 80 169.744 80C174.182 80 177.778 76.4323 177.778 72.0284V70.2331C177.778 65.8291 174.182 62.2614 169.744 62.2614ZM175.721 71.9593C175.721 75.2355 173.046 77.8901 169.744 77.8901C166.442 77.8901 163.767 75.2355 163.767 71.9593V70.3021C163.767 67.026 166.442 64.3714 169.744 64.3714C173.046 64.3714 175.721 67.026 175.721 70.3021V71.9593Z" fill="#231815"/>
<path d="M281.172 62.2614C276.734 62.2614 273.138 65.8291 273.138 70.2331V72.0284C273.138 76.4323 276.734 80 281.172 80C285.61 80 289.206 76.4323 289.206 72.0284V70.2331C289.206 65.8291 285.61 62.2614 281.172 62.2614ZM287.149 71.9593C287.149 75.2355 284.474 77.8901 281.172 77.8901C277.871 77.8901 275.195 75.2355 275.195 71.9593V70.3021C275.195 67.026 277.871 64.3714 281.172 64.3714C284.474 64.3714 287.149 67.026 287.149 70.3021V71.9593Z" fill="#231815"/>
<path d="M213.005 70.7241H212.364C214.359 70.7241 215.975 69.1205 215.975 67.1411V66.9186C215.975 64.4864 213.987 62.5146 211.536 62.5146H203.711V79.6164H211.49C214.312 79.6164 216.601 77.3453 216.601 74.5449V74.2917C216.601 72.3199 214.993 70.7241 213.005 70.7241ZM206.232 64.824H211.297C212.534 64.824 213.539 65.8214 213.539 67.049V67.4633C213.539 68.6909 212.534 69.6883 211.297 69.6883H206.232V64.8317V64.824ZM214.475 74.8748C214.475 76.3326 213.284 77.5065 211.822 77.5065H206.232V71.7522H211.822C213.292 71.7522 214.475 72.9337 214.475 74.3838V74.8672V74.8748Z" fill="#231815"/>
<path d="M230.666 79.6087H233.055L227.032 62.507H224.325L217.962 79.6087H220.351L222.153 74.6293H228.903L230.666 79.6087ZM222.957 72.4043L225.562 65.2L228.114 72.4043H222.957Z" fill="#231815"/>
<path d="M338.088 79.6087H340.478L334.454 62.507H331.748L325.385 79.6087H327.774L329.575 74.6293H336.326L338.088 79.6087ZM330.379 72.4043L332.985 65.2L335.537 72.4043H330.379Z" fill="#231815"/>
<path d="M382.193 79.6087H384.582L378.559 62.507H375.852L369.489 79.6087H371.878L373.68 74.6293H380.43L382.193 79.6087ZM374.484 72.4043L377.089 65.2L379.641 72.4043H374.484Z" fill="#231815"/>
<path d="M265.453 62.507H262.63L254.079 70.8775V62.507H251.875V79.6087H254.079V73.6549L256.847 70.9389L262.831 79.6087H265.453L258.409 69.4121L265.453 62.507Z" fill="#231815"/>
<path d="M292.221 62.507V79.6471H294.703V71.99H302.791V69.8264H294.665V64.7857H303.998V62.507H292.221Z" fill="#231815"/>
<path d="M324.998 62.507H311.297V64.8624H316.964V79.6471H319.33V64.8624H324.998V62.507Z" fill="#231815"/>
<path d="M347.561 62.507H350.128L353.259 76.0334L357.187 62.507H359.53L363.334 76.0334L366.528 62.507H369.18L364.579 79.6087H362.29L358.285 65.7831L354.419 79.6087H352.045L347.561 62.507Z" fill="#231815"/>
<path d="M51.1869 1.22758V79.4246H17.4128C7.79402 79.4246 0 71.6908 0 62.1464V1.22758H17.32V62.3305H34.1607V1.22758H51.1946H51.1869Z" fill="#00488E"/>
<path d="M51.1869 1.22758H75.5355L95.2602 21.1374L75.5355 40.3261H51.1869L71.0431 21.1374L51.1869 1.22758Z" fill="#207B8D"/>
<path d="M51.1869 40.3261H75.5355L95.2602 60.0518L75.5355 79.4246H51.1869L71.0431 60.0518L51.1869 40.3261Z" fill="#C81D35"/>
</g>
<defs>
<clipPath id="clip0_787_129">
<rect width="400" height="80" fill="white"/>
</clipPath>
</defs>
</svg>
