<svg width="443" height="433" viewBox="0 0 443 433" fill="none" xmlns="http://www.w3.org/2000/svg">
<path d="M217.031 78.5045C199.113 63.1316 207.262 32.7661 230.771 27.304L255.969 21.4492C264.716 19.4169 273.73 21.5892 280.377 27.3315L350.423 87.8386C360.339 96.4047 362.92 111.015 356.666 123.186L313.727 206.753C309.62 214.746 302.244 220.555 293.674 222.546L269.503 228.162C245.758 233.679 227.446 208.96 238.895 186.847L260.215 145.67C266.54 133.455 263.944 118.754 253.947 110.177L217.031 78.5045Z" fill="#3BB5CD" fill-opacity="0.7"/>
<path d="M168.996 57.9962C184.535 54.1168 199.668 63.7056 202.797 79.4134L257.605 354.616C260.733 370.324 250.672 386.202 235.133 390.081L133.198 415.529C115.412 419.97 96.8156 416.497 81.4987 405.876C66.1818 395.255 55.3995 378.355 51.5237 358.894L5.66433 128.627C2.53601 112.919 12.5971 97.0409 28.1365 93.1616L38.5669 90.5576C54.1062 86.6782 69.2394 96.267 72.3677 111.975L112.725 314.615C115.853 330.323 130.986 339.912 146.526 336.032L155.11 333.889C170.649 330.01 180.71 314.131 177.582 298.424L137.225 95.7833C134.096 80.0755 144.158 64.197 159.697 60.3176L168.996 57.9962Z" fill="#81C0FD"/>
<path d="M296.867 241.102C277.98 225.63 284.394 196.349 307.77 191.325L317.819 189.165C326.766 187.242 336.282 189.61 343.492 195.554L403.266 244.83C413.456 253.23 417.003 267.013 411.961 278.618L382.824 345.68C379.291 353.812 372.014 359.705 363.154 361.61L353.574 363.669C330.084 368.717 309.804 344.934 319.242 323.408L331.241 296.042C336.348 284.392 332.78 270.524 322.509 262.11L296.867 241.102Z" fill="#F9687C" fill-opacity="0.7"/>
</svg>
